<?xml version="1.0" standalone="no"?>
<!DOCTYPE svg PUBLIC "-//W3C//DTD SVG 20010904//EN"
 "http://www.w3.org/TR/2001/REC-SVG-20010904/DTD/svg10.dtd">
<svg version="1.0" xmlns="http://www.w3.org/2000/svg"
 width="256.000000pt" height="256.000000pt" viewBox="0 0 256.000000 256.000000"
 preserveAspectRatio="xMidYMid meet">

<g transform="translate(0.000000,256.000000) scale(0.100000,-0.100000)"
fill="#000000" stroke="none">
<path d="M320 2387 c-49 -16 -133 -102 -148 -153 -17 -59 -17 -1849 0 -1908
16 -55 99 -138 154 -154 30 -9 181 -12 556 -12 590 0 578 -2 651 80 69 76 87
171 42 215 -49 50 -135 15 -135 -55 0 -19 -9 -40 -25 -55 l-24 -25 -511 0
-511 0 -24 25 -25 24 0 911 0 911 25 24 c24 25 27 25 197 25 l174 0 12 -44
c40 -151 264 -151 304 0 l12 44 174 0 c170 0 173 0 197 -25 24 -23 25 -29 25
-160 l0 -135 -296 0 c-204 0 -310 -4 -338 -12 -55 -16 -138 -99 -154 -154 -8
-29 -12 -151 -12 -418 l0 -376 -55 0 c-47 0 -60 -4 -82 -26 -24 -24 -25 -30
-19 -86 7 -70 54 -166 99 -204 16 -14 53 -37 81 -52 l51 -27 725 0 725 0 51
27 c28 15 65 38 81 52 45 38 92 134 99 204 6 56 5 62 -19 86 -22 22 -35 26
-82 26 l-55 0 0 376 c0 262 -4 389 -12 416 -6 22 -31 62 -55 88 -66 74 -94 80
-355 80 l-218 0 0 136 c0 163 -10 200 -67 264 -73 82 -60 80 -657 79 -349 -1
-533 -5 -556 -12z m1735 -652 l25 -24 0 -376 0 -375 -640 0 -640 0 0 375 0
376 25 24 24 25 591 0 591 0 24 -25z m144 -961 c-50 -55 -34 -54 -759 -54
-725 0 -709 -1 -759 54 l-24 26 783 0 783 0 -24 -26z"/>
<path d="M983 1497 c-90 -90 -103 -107 -103 -137 0 -30 13 -47 103 -137 88
-88 108 -103 135 -103 43 0 82 38 82 80 0 25 -13 45 -62 96 l-61 64 61 64 c49
51 62 71 62 96 0 42 -39 80 -82 80 -27 0 -47 -15 -135 -103z"/>
<path d="M1477 1589 c-23 -14 -197 -361 -197 -394 0 -54 70 -92 121 -65 24 13
199 360 199 395 0 55 -73 93 -123 64z"/>
<path d="M1705 1575 c-43 -42 -34 -77 37 -151 l61 -64 -61 -64 c-49 -51 -62
-71 -62 -96 0 -42 39 -80 82 -80 27 0 47 15 135 103 90 90 103 107 103 137 0
30 -13 47 -103 137 -88 88 -108 103 -135 103 -22 0 -41 -9 -57 -25z"/>
</g>
</svg>
